# xmcd
#
# Track frame offsets:
#  150
#  11200
#  21515
#  32375
#  44157
#  54182
#  64862
#  75640
#  86350
#  97245
#  107842
#  119355
#  129645
#  140537
#  153095
#  162170
#  171859
#  183970
#  195480
#  207232
#  217810
#  229360
#  239837
#  252510
#  265060
#  277480
#  286770
#  298995
#
# Disc length: 4112 seconds
#
# Revision: 0
# Processed by: cddbd v1.5.1PL2 Copyright (c) Steve Scherf et al.
# Submitted via: Collectorz.com_Music_Collector 6.9
#
DISCID=a8100e1c
DTITLE=Various Artist - The Best Of The Rarest Doo Wops - Volume 02
DYEAR=1900
DGENRE=Doo-Wop
TTITLE0=Porgy and The Monarchs - Somebody Said
TTITLE1=Dells, The - Goodbye Mary Ann
TTITLE2=Fabulous Four, The - I'm Comin' Home
TTITLE3=Harptones, The - Answer Me My Love
TTITLE4=Drapers, The - Your Love Has Gone Away
TTITLE5=Majestics, The - Strange World
TTITLE6=Porgy and The Monarchs - Stay
TTITLE7=Illusions, The - Hey Boy
TTITLE8=Teddy and The Twighlights - I'm Just Your Clown
TTITLE9=Delacardos, The - I Just Want To Know
TTITLE10=Gainors, The - Tell Him
TTITLE11=Laddins, The - If You Need Me I'll Be There
TTITLE12=Preludes, The - That Would Be So Good
TTITLE13=Serenaders, The - If Your Heart Says Yes
TTITLE14=Renaults, The - Another Train Pulled Out
TTITLE15=Chessmen, The - Mr. Cupid
TTITLE16=Renaults, The - Just Like Mine
TTITLE17=Tabs, The - Two Stupid Feet
TTITLE18=King-Pins, The - Dance Romeo Dance
TTITLE19=Larry and The Legends (with The Four Seasons) - Don't Pick On My Baby
TTITLE20=Flamingos, The - I Know Better
TTITLE21=Nomads, The - Tell It Like It Is
TTITLE22=Serenaders, The - Two Lovers Make One Fool
TTITLE23=Rays, The - Love Another Girl
TTITLE24=Imperials, The - Bermuda Wonderful
TTITLE25=Original Cadillacs, The - I'll Never Let You Go
TTITLE26=Little Tommy and The Elgins - I Walk On
TTITLE27=J D and The Impressions - Baby You'll Get Yours
EXTD=
EXTT0=
EXTT1=
EXTT2=
EXTT3=
EXTT4=
EXTT5=
EXTT6=
EXTT7=
EXTT8=
EXTT9=
EXTT10=
EXTT11=
EXTT12=
EXTT13=
EXTT14=
EXTT15=
EXTT16=
EXTT17=
EXTT18=
EXTT19=
EXTT20=
EXTT21=
EXTT22=
EXTT23=
EXTT24=
EXTT25=
EXTT26=
EXTT27=
PLAYORDER=
